<svg xmlns="http://www.w3.org/2000/svg" xmlns:xlink="http://www.w3.org/1999/xlink" version="1.1" id="Layer_1" x="0" y="0" width="996.76" height="818.07" viewBox="1.68 0 996.76 818.07" enable-background="new 1.677 0 996.761 818.066" xml:space="preserve"><path fill="#FFFFFF" d="M977.67 81.81c-11.48 0-20.77 9.15-20.77 20.45v634c0 33.87-41.53 33.87-41.53 0V40.9C915.38 18.29 896.78 0 873.84 0H43.21C20.27 0 1.68 18.29 1.68 40.9v674.9c0 56.48 46.48 102.26 103.83 102.26 0 0 765.62 0 789.1 0 57.35 0 103.83-45.78 103.83-102.26v-613.55C998.44 90.95 989.15 81.81 977.67 81.81zM84.74 265.87h290.72v286.32H84.74V265.87zM832.31 552.19H458.53v-40.9H832.31V552.19zM832.31 470.39H458.53v-40.9H832.31V470.39zM832.31 388.58H458.53v-40.9H832.31V388.58zM832.31 306.78H458.53v-40.9H832.31V306.78zM832.31 184.06H84.74V122.71H832.31V184.06z"/></svg>
