<svg xmlns="http://www.w3.org/2000/svg" width="135" height="100" fill="#fff" viewBox="0 0 112 83.992"><path d="M112 10.407v35.177s-7.257 1.479-8.75 1.676c-1.493.195-6.17 1.758-9.57-1.619-5.231-5.208-23.834-24.393-23.834-24.393s-3.205-3.262-8.357-.438c-4.704 2.577-11.682 6.346-14.631 7.835a6.238 6.238 0 0 1-3.686 1.209c-3.557 0-6.439-2.992-6.439-6.684 0-2.893 1.774-5.35 4.254-6.279 6.709-4.21 20.685-12.35 26.519-15.565 3.562-1.96 6.127-2.128 11.013 2.133 6.021 5.259 11.373 10.042 11.373 10.042s2.506 1.199 4.531.905C98.658 13.781 112 10.407 112 10.407zM37.986 70.01c.9-2.398.598-5.088-1.129-6.926-1.553-1.656-3.812-2.092-5.974-1.578.603-2.217.271-4.578-1.292-6.248-1.559-1.652-3.812-2.086-5.973-1.572.597-2.217.266-4.578-1.293-6.25-2.445-2.604-6.674-2.49-9.45.259-2.763 2.753-4.536 7.731-2.067 10.653 2.465 2.92 5.287 1.146 7.448.635-.597 2.217-2.397 4.283-.187 7.187 2.207 2.912 5.287 1.148 7.447.632-.602 2.215-2.324 4.487-.19 7.186 2.146 2.697 5.665 1.26 7.983.514-.896 2.395-2.813 4.965-.35 7.868 2.459 2.901 8.148 1.55 10.93-1.199 2.776-2.749 3.039-7.103.603-9.707-1.68-1.79-4.191-2.206-6.506-1.454zm50.618-18.393c-19.979-20.724-10.57-10.966-21.36-22.179 0 0-3.253-3.36-7.532-1.41-3.005 1.367-6.874 3.229-9.791 4.648-3.206 1.735-6.001 2.268-6.585 2.268-6.183 0-11.2-5.199-11.2-11.61 0-4.158 2.129-7.779 5.301-9.833 4.461-3.201 14.737-8.876 14.737-8.876S49.048.509 42.187.509c-6.854 0-21.172 9.739-21.172 9.739s-4.064 2.702-9.855.271L0 6.487V46.73s3.184.963 6.048 2.171c.653-1.909 1.685-3.683 3.142-5.138 4.75-4.695 12.619-4.746 16.944-.131a11.286 11.286 0 0 1 2.675 4.924 10.765 10.765 0 0 1 4.586 2.901 11.193 11.193 0 0 1 2.68 4.918 10.78 10.78 0 0 1 4.587 2.908c1.433 1.524 2.385 3.383 2.837 5.396a10.853 10.853 0 0 1 4.792 2.981c2.589 2.761 3.519 6.517 2.955 10.14v.006c.005.006.013.01.019.018.098.113 1.618 1.887 2.582 2.885a4.799 4.799 0 0 0 6.957 0c1.913-1.986 1.92-5.227 0-7.219-.062-.064-.137-.11-.201-.171.002-.015.01-.03.012-.044-6.465-6.706-6.801-7.191-6.161-7.854.639-.663 1.586.798 8.819 8.308a.41.41 0 0 0 .133.084c.145.211.289.423.471.61a4.8 4.8 0 0 0 6.957 0c1.914-1.987 1.918-5.227 0-7.22-.102-.105-.216-.186-.323-.28-.094-.114-.188-.229-.302-.346-6.6-6.841-7.35-8.144-6.846-8.666.574-.597 3.648 2.903 10.215 9.712.014 0 .027-.004.043-.004a4.788 4.788 0 0 0 6.775-.155c1.791-1.858 1.887-4.803.322-6.807a.681.681 0 0 0-.165-.338c-8.311-8.63-7.956-8.759-7.452-9.281s.541-.558 8.629 7.832c.03.034.051.076.084.11a4.802 4.802 0 0 0 6.959 0c1.912-1.987 1.918-5.228 0-7.221-.056-.052-.116-.09-.169-.142z"/></svg>
