<svg xmlns="http://www.w3.org/2000/svg" viewBox="0 0 44 23.35"><path d="M6.39 0H0v23.35h6.39c7.16 0 13.48-2.41 13.48-11.67S13.55 0 6.39 0zm.9 19.67H4.68v-16h2.61a7.63 7.63 0 0 1 7.69 8 7.63 7.63 0 0 1-7.69 8zM30.52 0h-6.39v23.35h6.39c7.16 0 13.48-2.41 13.48-11.67S37.68 0 30.52 0zm.9 19.67h-2.61v-16h2.61a7.64 7.64 0 0 1 7.7 8 7.64 7.64 0 0 1-7.7 8z" fill="#da2c92"/><path d="M6.39 0H0v23.35h6.39c7.16 0 13.48-2.41 13.48-11.67S13.55 0 6.39 0zm.9 19.67H4.68v-16h2.61a7.63 7.63 0 0 1 7.69 8 7.63 7.63 0 0 1-7.69 8zM30.52 0h-6.39v23.35h6.39c7.16 0 13.48-2.41 13.48-11.67S37.68 0 30.52 0zm.9 19.67h-2.61v-16h2.61a7.64 7.64 0 0 1 7.7 8 7.64 7.64 0 0 1-7.7 8z" fill="#da2c92"/></svg>
