<svg xmlns="http://www.w3.org/2000/svg" width="84.5" height="94.762" viewBox="24.855 16.661 84.5 94.762"><g fill="#FFF"><path d="M98.305 26.923H95.45v-3.112c0-3.942-3.115-7.15-6.942-7.15s-6.941 3.208-6.941 7.15v3.112H74.44v-3.112c0-3.942-3.112-7.15-6.939-7.15s-6.939 3.208-6.939 7.15v3.112h-7.126v-3.112c0-3.942-3.115-7.15-6.942-7.15s-6.942 3.208-6.942 7.15v3.112h-3.645c-6.092 0-11.05 4.958-11.05 11.05v62.4c0 6.092 4.958 11.05 11.05 11.05h62.4c6.092 0 11.051-4.958 11.051-11.05v-62.4c-.003-6.092-4.962-11.05-11.053-11.05zm-12.839-3.112c0-1.792 1.365-3.25 3.042-3.25 1.678 0 3.042 1.458 3.042 3.25v12.727c0 1.792-1.364 3.25-3.042 3.25-1.677 0-3.042-1.458-3.042-3.25V23.811zm-21.006 0c0-1.792 1.363-3.25 3.04-3.25s3.039 1.458 3.039 3.25v12.727c0 1.792-1.362 3.25-3.039 3.25s-3.04-1.458-3.04-3.25V23.811zm-21.01 0c0-1.792 1.365-3.25 3.042-3.25 1.677 0 3.042 1.458 3.042 3.25v12.727c0 1.792-1.365 3.25-3.042 3.25-1.677 0-3.042-1.458-3.042-3.25V23.811zm59.405 76.562a4.555 4.555 0 0 1-4.551 4.55h-62.4a4.555 4.555 0 0 1-4.55-4.55v-46.8h71.5v46.8z"/><path d="M60.982 72.92c0 2.537 1.019 5.145 2.517 7.675 1.144-1.378 2.106-2.728 2.792-3.993-.577-1.279-.926-2.522-.926-3.682 0-4.127 2.168-6.689 5.66-6.689 2.598 0 5.515 1.445 8.014 3.962l1.555 1.57 1.555-1.57c2.498-2.517 5.416-3.962 8.016-3.962 3.489 0 5.658 2.563 5.658 6.689 0 6.377-10.039 15.213-15.229 19.097-2.393-1.792-5.803-4.653-8.799-7.826a44.536 44.536 0 0 1-2.781 3.472c4.482 4.661 9.352 8.18 10.324 8.857l1.256.879 1.256-.879c1.879-1.313 18.355-13.138 18.355-23.6 0-6.521-4.129-11.074-10.041-11.074-3.239 0-6.578 1.347-9.57 3.833-2.992-2.486-6.331-3.833-9.568-3.833-5.916 0-10.044 4.555-10.044 11.074z"/><path d="M53.148 96.52l1.256.879 1.256-.879c1.88-1.313 18.356-13.138 18.356-23.6 0-1.428-.224-2.74-.608-3.944-.824-.331-1.638-.554-2.384-.554-.979 0-1.667.312-2.174.77.507 1.02.785 2.271.785 3.729 0 6.377-10.039 15.213-15.231 19.097-5.19-3.885-15.226-12.718-15.226-19.098 0-4.127 2.168-6.689 5.658-6.689 2.597 0 5.515 1.445 8.013 3.962l1.555 1.57 1.558-1.57c1.211-1.225 2.527-2.179 3.855-2.85.895-2.272 2.335-4.16 4.188-5.491l-.031-.003c-3.24 0-6.578 1.347-9.571 3.833-2.993-2.486-6.331-3.833-9.568-3.833-5.913 0-10.042 4.553-10.042 11.073.001 10.46 16.478 22.285 18.355 23.598z"/></g></svg>
