<svg xmlns="http://www.w3.org/2000/svg" viewBox="11.22 240.42 448.195 57.54"><path fill="#fff" d="M22.68 284.64H11.22v-41.88h11.46c12.84 0 24.18 4.32 24.18 20.94s-11.34 20.94-24.18 20.94zm1.62-35.28h-4.68v28.68h4.68c7.02 0 13.8-5.22 13.8-14.34s-6.78-14.34-13.8-14.34zm46.86 35.28c-.3-1.62-.3-3.66-.36-4.62h-.12c-1.86 3.42-5.88 5.34-9.54 5.34-5.46 0-10.8-3.3-10.8-9.18 0-4.62 2.22-7.317 5.28-8.82 3.06-1.5 7.02-1.8 10.38-1.8h4.44c0-4.978-2.22-6.66-6.96-6.66-3.42 0-6.84 1.32-9.54 3.36l-.24-6.9c3.12-1.44 7.32-2.34 10.74-2.34 9.42 0 13.32 3.9 13.32 13.022V270c0 3.12.06 5.46.12 7.74.06 2.34.18 4.5.36 6.9h-7.08zm-4.2-14.28c-3.6 0-8.94.6-8.94 5.34 0 2.64 2.22 3.78 5.1 3.78 2.46 0 4.38-1.08 5.64-2.76 1.32-1.74 1.68-3.96 1.68-6.36h-3.48zm31.68 8.76c1.438 0 2.82-.3 3.66-.84l.24 6.36c-1.68.48-3.54.72-5.94.72-6.3 0-9.78-3.9-9.78-10.02v-15.72h-5.94v-5.88h5.94v-6.18l8.04-2.58v8.76H102v5.88h-7.14v14.396c0 2.644.72 5.105 3.78 5.104zm7.56 5.52v-30.9h8.04v30.9h-8.04zm0-44.22h8.04v7.68h-8.04v-7.68zm33.84 44.22v-16.5c0-3.78-.062-8.88-5.222-8.88-5.82 0-7.08 6.3-7.08 10.26v15.123h-8.04v-30.9h7.62v4.2h.12c2.52-3.54 5.94-4.92 10.14-4.92 7.32 0 10.5 5.16 10.5 12.122v19.5h-8.04l.002-.004zm25.378 13.32c-3.18 0-6.84-.48-10.68-2.1l.66-6.84c2.46 1.32 6.48 2.7 9 2.7 8.88 0 9.3-6.66 9.3-12h-.12c-1.5 2.64-5.1 4.92-9.6 4.92-9.12 0-12.6-7.32-12.6-15.6 0-7.44 3.84-16.022 13.08-16.022 4.08 0 7.26 1.38 9.48 4.92h.12v-4.2h7.68v27.9c0 8.402-3.36 16.322-16.32 16.322zm1.56-38.7c-5.46 0-7.2 5.04-7.2 9.78 0 4.2 2.22 9.36 6.84 9.36 5.04 0 7.08-4.38 7.08-9.54 0-5.28-2.04-9.6-6.72-9.6zm32.22 25.38h-11.46v-41.88h11.46c12.84 0 24.18 4.32 24.18 20.94s-11.34 20.94-24.18 20.94zm1.62-35.28h-4.68v28.68h4.68c7.02 0 13.8-5.22 13.8-14.34s-6.78-14.34-13.8-14.34zm25.2 35.28v-30.9h8.04v30.9h-8.04zm0-44.22h8.04v7.68h-8.04v-7.68zm29.757 20.28c-6.54 0-6.54 8.16-6.54 12.6v11.34h-8.04v-30.9h7.14v7.02h.12c.36-2.88 3.66-7.74 8.46-7.74.78 0 1.62 0 2.46.24v8.1c-.72-.42-2.16-.66-3.6-.66zm12.782 10.98c.36 4.98 3.84 7.8 8.82 7.8 3.898 0 7.26-1.437 10.26-3.118v6.54c-2.94 1.618-6.3 2.458-10.62 2.458-10.2 0-16.14-5.88-16.14-16.02 0-8.94 4.74-16.32 14.34-16.32 11.46 0 14.7 7.86 14.7 18.66h-21.36zm7.138-12.78c-4.5 0-6.78 3.12-7.14 7.26h13.68c-.24-3.9-2.04-7.26-6.54-7.26zm33.78 20.22c2.28 0 4.803-.84 6.183-1.44l.36 6.66c-2.34.72-4.74 1.02-8.04 1.02-10.14 0-15.24-6.896-15.24-16.316 0-8.94 5.28-16.02 14.94-16.02 3.24 0 5.58.36 7.8 1.02l-.72 6.36c-1.44-.66-3-1.14-5.46-1.14-4.98 0-8.16 3.96-8.16 9.78 0 5.697 2.7 10.08 8.34 10.08v-.004h-.003zm24.84 0c1.44 0 2.82-.3 3.66-.84l.24 6.36c-1.683.48-3.543.72-5.94.72-6.3 0-9.78-3.9-9.78-10.02v-15.72h-5.94v-5.88h5.94v-6.18l8.04-2.58v8.76h7.14v5.88h-7.14v14.396c0 2.644.72 5.105 3.78 5.104zm7.38 5.52v-8.4h8.397v8.4h-8.4.003zm28.44-5.52c2.28 0 4.8-.84 6.183-1.44l.36 6.66c-2.34.72-4.74 1.02-8.04 1.02-10.14 0-15.24-6.896-15.24-16.316 0-8.94 5.28-16.02 14.94-16.02 3.24 0 5.58.36 7.8 1.02l-.72 6.36c-1.44-.66-3-1.14-5.46-1.14-4.98 0-8.16 3.96-8.16 9.78 0 5.697 2.7 10.08 8.34 10.08v-.004h-.003zm23.04 6.24c-10.2 0-16.14-7.08-16.14-15.96 0-10.2 7.02-16.38 16.14-16.38 9.18 0 16.2 6.18 16.2 16.38 0 8.88-5.94 15.96-16.2 15.96zm0-26.1c-5.22 0-7.74 4.56-7.74 9.18 0 5.1 1.62 10.68 7.74 10.68 6.18 0 7.8-5.52 7.8-10.68 0-4.74-2.52-9.18-7.8-9.18zm58.2 25.38v-18.42c0-2.88 0-6.96-4.62-6.96-5.34 0-6 6.36-6 10.38v15h-8.04v-18.42c0-2.88 0-6.96-4.62-6.96-5.34 0-6 6.36-6 10.38v15h-8.04v-30.9h7.5v4.32h.12c2.52-3.78 6.18-5.04 9.18-5.04 4.32 0 7.38 1.62 9.12 5.46 1.86-3.72 5.88-5.46 9.66-5.46 7.62 0 9.78 5.22 9.78 12.123v19.5h-8.04v-.002z"/></svg>
